<svg xmlns="http://www.w3.org/2000/svg" viewBox="24 156 20 20" fill="none">
  <path d="M27 176C26.45 176 25.9792 175.804 25.5875 175.413C25.1958 175.021 25 174.55 25 174V162.725C24.7 162.542 24.4583 162.304 24.275 162.012C24.0917 161.721 24 161.383 24 161V158C24 157.45 24.1958 156.979 24.5875 156.587C24.9792 156.196 25.45 156 26 156H42C42.55 156 43.0208 156.196 43.4125 156.587C43.8042 156.979 44 157.45 44 158V161C44 161.383 43.9083 161.721 43.725 162.012C43.5417 162.304 43.3 162.542 43 162.725V174C43 174.55 42.8042 175.021 42.4125 175.413C42.0208 175.804 41.55 176 41 176H27ZM27 163V174H41V163H27ZM26 161H42V158H26V161ZM31 168H37V166H31V168Z" fill="currentColor"/>
</svg>
